<svg version="1.1" id="Layer_2" xmlns="http://www.w3.org/2000/svg" xmlns:xlink="http://www.w3.org/1999/xlink" x="0px" y="0px" width="102px" height="36px" viewBox="24 18 102 36" enable-background="new 32.458 20.216 85.589 35.034" xml:space="preserve">
  <g>
    <path d="M43.752,40.106c-0.083-2.707-0.514-5.396-0.479-8.108c0.028-2.194,0.393-4.45-0.363-6.554 c0.047-0.239,0.097-0.477,0.141-0.717c0.195-1.055-3.3-0.497-3.849,0.468c-0.346,0.283-0.523,0.621-0.377,0.965 c0.037,0.087,0.069,0.175,0.102,0.263c-0.662,3.233-1.584,6.364-2.645,9.498c-0.406,1.199-0.896,2.37-1.31,3.565 c-0.587-1.114-1.181-2.214-1.658-3.408c-1.386-3.464-2.636-6.965-4.326-10.299c0.192-1.543-3.232-1.381-3.907,0.032 c-0.816,1.709-0.711,3.434-0.442,5.262c0.303,2.061,0.356,4.086,0.381,6.167c0.048,4.012,0.361,8.016,0.421,12.027 c-0.357,0.397-0.466,0.889-0.092,1.388c0.163,0.217,0.365,0.385,0.576,0.554c0.913,0.73,3.533,0.108,3.528-1.283 c-0.014-4.16-0.314-8.312-0.424-12.471c-0.011-0.407-0.018-0.814-0.024-1.222c0.058,0.146,0.115,0.293,0.173,0.438 c0.646,1.618,1.322,3.191,2.205,4.696c0.876,1.491,1.315,3.092,1.819,4.719c-0.19,0.219-0.305,0.467-0.234,0.715 c-0.04,0.181,0.071,0.294,0.253,0.363c0.645,0.552,1.858,0.277,2.532-0.007c0.29-0.122,0.566-0.263,0.834-0.427 c0.348-0.215,0.891-0.686,0.735-1.17c-0.03-0.093-0.059-0.187-0.088-0.281c0.475-1.281,0.716-2.612,0.975-3.965 c0.275-1.441,0.789-2.805,1.307-4.171c0.053,0.625,0.107,1.249,0.157,1.872c0.206,2.577,0.033,5.118,0.008,7.696 c-0.009,0.854,0.054,1.648,0.221,2.484c0.068,0.345,0.37,1.824,0.283,1.904c-0.617,0.57-0.438,1.268,0.389,1.45 c0.923,0.203,2.1-0.106,2.795-0.749c1.209-1.117,0.638-2.871,0.364-4.28C43.273,45.158,43.826,42.512,43.752,40.106z"/>
    <path d="M52.192,40.788c-0.074-2.007-0.771-3.897-0.781-5.925c-0.011-2.327,0.183-4.635-0.156-6.949 c-0.107-0.732-4.093,0.101-3.953,1.059c0.312,2.129,0.199,4.268,0.161,6.412c-0.037,2.063,0.472,3.934,0.737,5.958 c0.271,2.073-0.085,4.195,0.15,6.271c0.11,0.971,0.758,2.768,0.09,3.612c-0.424,0.537,1.482,0.345,1.568,0.33 c0.775-0.143,1.809-0.395,2.324-1.048c0.659-0.835,0.198-2.448,0.054-3.387C52.066,45.041,52.271,42.885,52.192,40.788z"/>
    <path d="M68.671,37.438c-2.081-2.809-5.943-0.787-8.64-1.554c-1.39-0.396-1.407-2.292-1.403-3.428 c0.004-1.439-0.115-2.757-0.276-4.184c-0.119-1.061-0.024-2.14,0.753-2.93c0.143-0.146,0.866-0.339,0.817-0.342 c0.356-0.062,0.683-0.077,1.077-0.094c1.562-0.067,4.654,0.234,4.056,2.506c-0.269,1.019,3.629,0.435,3.913-0.643 c1.224-4.64-7.352-3.749-9.774-3.106c-2.231,0.592-4.692,1.862-4.819,4.438c-0.062,1.23,0.274,2.401,0.328,3.62 c0.061,1.403-0.2,2.802,0.291,4.155c1.092,3.01,5.57,1.59,7.849,1.761c3.88,0.29,2.722,5.519,2.772,7.955 c0.027,1.3,1.192,3.461,0.213,4.549c-0.601,0.668-2,0.706-2.817,0.774c-0.821,0.069-2.221,0.315-2.768-0.465 c-1.002-1.431,0.093-3.834-0.121-5.474c-0.122-0.933-4.104-0.096-3.953,1.059c0.346,2.651-1.412,6.2,2.424,6.655 c2.464,0.293,5.238-0.162,7.568-0.936c1.207-0.4,2.328-0.951,3.272-1.81c1.045-0.949,0.701-2.369,0.421-3.579 C69.172,43.422,70.593,40.032,68.671,37.438z"/>
    <path d="M86.155,37.248c-0.122-3.812-0.696-7.582-0.711-11.4c-0.009-1.989-4-1.317-3.993,0.346 c0.015,3.641,0.501,7.232,0.688,10.862c0.003,0.074,0.008,0.148,0.012,0.223c-1.967-0.018-3.934,0.179-5.905,0.248 c0.203-4.675-0.617-9.311-0.438-13.983c0.022-0.587-3.909-0.091-3.953,1.059c-0.172,4.516,0.593,8.997,0.457,13.514 c-0.064,2.155-0.247,4.303-0.262,6.46c-0.008,1.105,0.173,2.204,0.332,3.293c0.147,1.008,0.488,2.352,0.183,3.349 c-0.238,0.779,3.594,0.293,3.897-0.701c0.55-1.794-0.224-4.076-0.408-5.892c-0.177-1.74-0.04-3.53,0.084-5.296 c2.048-0.131,4.096-0.3,6.135-0.012c0.091,1.391,0.197,2.779,0.325,4.172c0.106,1.168,0.181,2.334,0.198,3.507 c0.016,1.028,0.143,2.519-0.223,3.492c-0.78,2.075,3.179,1.906,3.757,0.368c0.71-1.887,0.507-4.237,0.386-6.22 C86.565,42.169,86.235,39.717,86.155,37.248z"/>
    <path d="M103.242,41.762c-0.948-2.783-2.395-5.224-3.649-7.868c1.01-1.967,2.036-3.935,2.959-5.942 c0.838-1.824,1.459-3.854,3.107-5.139c0.579-0.451,0.555-0.904-0.258-0.96c-0.883-0.061-2.083,0.194-2.795,0.749 c-1.498,1.168-2.448,2.587-3.229,4.307c-0.94,2.069-1.914,4.101-2.94,6.13c-0.074,0.149-0.15,0.298-0.226,0.448 c-0.494,0.318-0.792,0.769-0.645,1.277c-0.798,1.578-1.614,3.146-2.521,4.653c-0.302-5.584-0.963-11.162-1.161-16.751 c-0.045-1.281-4.007-0.484-3.953,1.059c0.246,6.93,1.23,13.845,1.299,20.775c-0.017,0.017-0.032,0.034-0.049,0.051 c-0.303,0.311-0.191,0.498,0.053,0.606c0.002,1.767-0.06,3.534-0.211,5.303c-0.477,0.752,0.467,1.149,1.094,1.149 c0.033,0,0.065,0,0.098,0c0.746,0,2.649-0.353,2.742-1.376c0.193-2.119,0.254-4.234,0.234-6.349 c1.605-1.731,2.916-3.663,4.093-5.687c0.766,1.494,1.495,3,2.007,4.625c0.868,2.766,2.32,5.308,3.159,8.087 c0.55,1.822,4.497,0.745,3.952-1.059C105.563,47.072,104.177,44.505,103.242,41.762z"/>
    <path d="M126.96,37.085c-0.212-0.84-1.385-0.857-2.292-0.777c-0.013-0.338-0.021-0.677-0.036-1.016 c-0.127-2.686-0.168-5.428-0.396-8.105c-0.211-2.479-1.599-3.368-4.008-3.276c-2.438,0.093-5.277,0.532-7.55,1.416 c-2.632,1.023-4.096,2.961-4.601,5.733c-0.555,3.041,0.242,6.275,0.377,9.331c0.155,3.535,0.066,7.078,0.062,10.614 c0,0.579,3.952,0.031,3.953-1.059c0.003-2.801,0.043-5.602,0-8.402c-0.014-0.826-0.052-1.647-0.104-2.466 c1.382-0.599,3.721,0.013,5.097,0.143c1.117,0.105,2.188-0.167,3.273-0.294c0.021,2.333,0.108,4.678,0.204,7.008 c0.049,1.194,0.481,3.563-0.356,4.552c-0.44,0.521,1.493,0.347,1.568,0.333c0.801-0.147,1.777-0.404,2.324-1.05 c0.958-1.13,0.46-3.824,0.405-5.173c-0.079-1.928-0.103-3.859-0.143-5.789C125.903,38.656,127.177,37.943,126.96,37.085z M112.208,36.933c-0.104-1.257-0.219-2.513-0.306-3.777c-0.161-2.352,0.118-5.634,2.31-7.062c0.587-0.383,1.691-0.317,2.377-0.442 c0.979-0.177,1.974-0.393,2.855,0.192c1.221,0.81,0.92,3.69,0.918,4.913c-0.002,2.024,0.21,4.038,0.313,6.058 c-0.558,0.056-1.122,0.09-1.698,0.077C116.67,36.837,114.393,36.474,112.208,36.933z"/>
    <path d="M48.771,25.176c0.526-0.051,1.055-0.229,1.49-0.529c0.087-0.073,0.173-0.146,0.26-0.219 c0.524-0.338,0.979-0.834,0.734-1.373c-0.509-1.115-0.428-2.251-0.42-3.445c0.007-0.966-0.972-1.257-1.797-1.185 c-0.729,0.064-2.188,0.586-2.194,1.534c-0.007,1.002-0.072,2.034,0.11,3.02c-0.049,0.113-0.075,0.241-0.105,0.358 c-0.056,0.214,0.016,0.424,0.144,0.595c0,0.045,0.002,0.09,0.002,0.135c0.005,0.113,0.011,0.226,0.015,0.338 c0.074,0.235,0.218,0.413,0.433,0.535C47.833,25.176,48.327,25.219,48.771,25.176z"/>
  </g>
</svg>
